<?xml version="1.0" encoding="UTF-8" standalone="no"?>
<svg
   xmlns:dc="http://purl.org/dc/elements/1.1/"
   xmlns:cc="http://creativecommons.org/ns#"
   xmlns:rdf="http://www.w3.org/1999/02/22-rdf-syntax-ns#"
   xmlns:svg="http://www.w3.org/2000/svg"
   xmlns="http://www.w3.org/2000/svg"
   xmlns:sodipodi="http://sodipodi.sourceforge.net/DTD/sodipodi-0.dtd"
   xmlns:inkscape="http://www.inkscape.org/namespaces/inkscape"
   width="42.460079"
   height="35.520439"
   viewBox="0 0 176.917 148.00183"
   shape-rendering="geometricPrecision"
   version="1.1"
   id="svg12"
   sodipodi:docname="Airtable_Logo.svg"
   inkscape:version="1.0.1 (3bc2e813f5, 2020-09-07)">
  <metadata
     id="metadata18">
    <rdf:RDF>
      <cc:Work
         rdf:about="">
        <dc:format>image/svg+xml</dc:format>
        <dc:type
           rdf:resource="http://purl.org/dc/dcmitype/StillImage" />
        <dc:title></dc:title>
      </cc:Work>
    </rdf:RDF>
  </metadata>
  <defs
     id="defs16" />
  <sodipodi:namedview
     pagecolor="#ffffff"
     bordercolor="#666666"
     borderopacity="1"
     objecttolerance="10"
     gridtolerance="10"
     guidetolerance="10"
     inkscape:pageopacity="0"
     inkscape:pageshadow="2"
     inkscape:window-width="2560"
     inkscape:window-height="1377"
     id="namedview14"
     showgrid="false"
     inkscape:zoom="6.384804"
     inkscape:cx="81.599998"
     inkscape:cy="17.760369"
     inkscape:window-x="-8"
     inkscape:window-y="-8"
     inkscape:window-maximized="1"
     inkscape:current-layer="svg12" />
  <path
     fill="#fcb400"
     d="M 79,1.8685381 13.04,29.161538 c -3.668,1.518 -3.63,6.729 0.061,8.192 l 66.235,26.266 a 24.575,24.575 0 0 0 18.12,0 l 66.236,-26.267 c 3.69,-1.462 3.73,-6.672 0.06,-8.19 L 97.794,1.8675381 a 24.578,24.578 0 0 0 -18.795,0"
     id="path4" />
  <path
     fill="#18bfff"
     d="m 94.273,77.961538 v 65.617002 c 0,3.12 3.147,5.258 6.048,4.108 l 73.806,-28.648 a 4.418,4.418 0 0 0 2.79,-4.108 V 49.314538 c 0,-3.121 -3.147,-5.258 -6.048,-4.108 l -73.806,28.648 a 4.42,4.42 0 0 0 -2.79,4.108"
     id="path6" />
  <path
     fill="#f82b60"
     d="m 77.038,81.347538 -21.904,10.576 -2.224,1.075 L 6.672,115.15354 C 3.742,116.56754 0,114.43154 0,111.17554 V 49.589538 c 0,-1.178 0.604,-2.195 1.414,-2.96 a 5.024,5.024 0 0 1 1.12,-0.84 c 1.104,-0.663 2.68,-0.84 4.02,-0.31 l 70.116,27.782 c 3.564,1.414 3.844,6.408 0.368,8.087"
     id="path8" />
  <path
     fill="rgba(0, 0, 0, 0.25)"
     d="m 77.038,81.347538 -21.904,10.576 -53.72,-45.295 a 5.024,5.024 0 0 1 1.12,-0.839 c 1.104,-0.663 2.68,-0.84 4.02,-0.31 l 70.116,27.782 c 3.564,1.414 3.844,6.408 0.368,8.087"
     id="path10" />
</svg>
